<?xml version="1.0" encoding="utf-8"?>
<!-- Generator: Adobe Illustrator 21.0.0, SVG Export Plug-In . SVG Version: 6.00 Build 0)  -->
<svg version="1.1" id="Ebene_1" xmlns="http://www.w3.org/2000/svg" xmlns:xlink="http://www.w3.org/1999/xlink" x="0px" y="0px"
	 viewBox="0 0 139.2 22.4" style="enable-background:new 0 0 139.2 22.4;" xml:space="preserve">
<style type="text/css">
	.st0{fill:#003366;}
</style>
<g>
	<path class="st0" d="M0,16.7h3v-1.6h0C3.4,16.2,4.3,17,5.7,17c1.7,0,3.9-1.1,3.9-5.8c0-1.9-0.3-5-3.4-5c-1.6,0-2.5,0.8-3,2.1h0V4H0
		V16.7z M6.4,11.7c0,1.2-0.5,2.4-1.6,2.4c-1.3,0-1.7-1.3-1.7-2.4c0-1.1,0.3-2.5,1.7-2.5C6.2,9.3,6.4,10.6,6.4,11.7"/>
	<path class="st0" d="M19,13.1c-0.7,1-1.8,1.4-3,1.4c-1.4,0-2.4-0.7-2.6-1.9h6.1c0.1-0.6,0.1-1.2,0.1-1.8c0-2.8-1.3-4.7-4.2-4.7
		c-3.7,0-5,2.2-5,5.5c0,3.3,1.5,5.3,5,5.3c1.3,0,2.8-0.5,3.5-1.4V13.1z M13.5,10.4c0.1-0.9,0.9-1.5,1.9-1.5c1,0,1.9,0.5,2,1.5H13.5z
		"/>
</g>
<polygon class="st0" points="21.6,19.1 24.9,19.1 29.2,6.5 25.9,6.5 24.3,13.4 24.3,13.4 22.8,6.5 19.4,6.5 22.7,16.1 "/>
<g>
	<path class="st0" d="M37.6,13.1c-0.7,1-1.8,1.4-3,1.4c-1.4,0-2.4-0.7-2.6-1.9H38c0.1-0.6,0.1-1.2,0.1-1.8c0-2.8-1.3-4.7-4.2-4.7
		c-3.7,0-5,2.2-5,5.5c0,3.3,1.5,5.3,5,5.3c1.3,0,2.8-0.5,3.5-1.4V13.1z M32,10.4c0.1-0.9,0.9-1.5,1.9-1.5c1,0,1.9,0.5,2,1.5H32z"/>
	<path class="st0" d="M39.2,16.7h3.3v-4.5c0-1.5,0.7-2.6,2.1-2.6c0.7,0,1.4,0.3,1.7,0.8V6.5c-0.4-0.2-0.8-0.3-1.4-0.3
		c-1.7,0-2.3,1.6-2.6,2.9h0V6.5h-3.1V16.7z"/>
	<path class="st0" d="M53.5,16.7h3V4h-3.2v4.3h0c-0.5-1.3-1-2.1-2.8-2.1c-3,0-3.6,3.2-3.6,5.4c0,4.4,2.2,5.4,3.6,5.4
		c1.7,0,2.5-0.9,3-1.9h0V16.7z M51.8,9.3c1.4,0,1.7,1,1.7,2.5c0,1.4-0.4,2.4-1.7,2.4c-1.4,0-1.6-1.2-1.6-2.6
		C50.2,10.6,50.5,9.3,51.8,9.3"/>
</g>
<polygon class="st0" points="59.4,19.1 62.6,19.1 67,6.5 63.7,6.5 62.1,13.4 62.1,13.4 60.6,6.5 57.2,6.5 60.5,16.1 "/>
<g>
	<path class="st0" d="M67.7,16.7H71v-5.3c0-1.1,0.4-2.1,1.4-2.1c0.9,0,1.2,0.6,1.2,1.5v5.9h3.3V9.3c0-2.3-1.2-3.2-2.8-3.2
		c-1.5,0-2.6,0.7-3.2,2.5h0V6.5h-3.1V16.7z"/>
	<path class="st0" d="M86.5,9.3c0-2.6-2.3-3.1-3.9-3.1c-1.5,0-3.2,0.6-4.3,1.6v2.9C79.2,9.6,80.7,9,82.1,9c0.6,0,1.4,0.3,1.4,0.9
		c0,1.5-5.6,0.3-5.6,4.4c0,1.7,1.4,2.7,2.9,2.7c1.4,0,2.5-0.8,2.9-2.1h0v1.8h2.8V9.3z M80.8,13.9c0-0.5,0.5-0.9,1.1-1.1
		c0.6-0.3,1.3-0.5,1.6-0.8c-0.1,1-0.3,2.9-1.7,2.9C81.3,14.9,80.8,14.5,80.8,13.9"/>
	<path class="st0" d="M87.6,16.7h3.3v-6.1c0-0.8,0.5-1.3,1.4-1.3c0.7,0,1.1,0.5,1.1,1.4v6h3.3v-6.1c0-0.8,0.5-1.3,1.4-1.3
		c0.7,0,1.1,0.5,1.1,1.4v6h3.3V9.5c0-2.4-1.1-3.3-2.9-3.3c-1.6,0-2.6,1.1-3,2.6h0c-0.3-1.7-1.1-2.6-2.9-2.6c-1.5,0-2.4,1-2.8,2.4h0
		V6.5h-3.1V16.7z"/>
	<path class="st0" d="M103.9,16.7h3.3V6.5c-0.5,0.2-1.1,0.3-1.7,0.3c-0.6,0-1.1-0.1-1.7-0.3V16.7z M105.5,3.7c-1.2,0-2,0.3-2,1.2
		c0,1,0.8,1.2,2,1.2c1.1,0,2-0.2,2-1.2C107.5,3.9,106.7,3.7,105.5,3.7"/>
	<path class="st0" d="M116,7.4c-0.8-0.9-2-1.2-3.1-1.2c-3.4,0-5,2.2-5,5.4c0,2.9,1.4,5.4,4.7,5.4c1.3,0,2.5-0.4,3.3-1.4v-2.9
		c-0.7,0.9-1.4,1.5-2.6,1.5c-1.6,0-2.2-1.1-2.2-2.3c0-1.6,0.8-2.4,2.3-2.4c0.8,0,1.6,0.2,2.5,1.2V7.4z"/>
	<path class="st0" d="M120.9,0c6.3,11.4,0,22.4,0,22.4h-4.5c6.4-11.3,2.1-19,0-22.4H120.9z"/>
	<path class="st0" d="M126.7,0c3,6.5,2.8,15.8,0,22.4h-4.2c3.5-6.4,3.5-16,0-22.4H126.7z"/>
	<path class="st0" d="M132.2,0c2.6,6.6,2.4,15.7,0,22.4h-4c2.8-6.5,2.8-15.8,0-22.4H132.2z"/>
	<path class="st0" d="M137.6,0c2.2,6.7,2.1,15.6,0,22.4h-3.9c2.3-6.7,2.5-15.7,0-22.4H137.6z"/>
</g>
</svg>
